<svg xmlns="http://www.w3.org/2000/svg" width="1600" height="900" viewBox="0 0 1600 900" role="img" aria-labelledby="title desc">
<title id="title">Northstar Enterprise RAG reference architecture</title><desc id="desc">A left-to-right enterprise RAG architecture from authenticated request through authorization, routing, evidence systems, quality control, an evidence ledger, validation, and observability.</desc>
<defs><filter id="shadow" x="-10%" y="-10%" width="120%" height="130%"><feDropShadow dx="0" dy="3" stdDeviation="5" flood-color="#16324F" flood-opacity="0.10"/></filter></defs>
<rect width="100%" height="100%" fill="#F7F9FC"/>
<text x="60" y="70" font-family="Inter,Arial,sans-serif" font-size="34" font-weight="700" fill="#16324F">Northstar Enterprise RAG reference architecture</text>
<text x="60" y="103" font-family="Inter,Arial,sans-serif" font-size="17" fill="#52606D">Identity constrains evidence; adaptive and corrective control earn complexity per request.</text>
<rect x="300" y="140" width="560" height="240" rx="20" fill="#FBFCFF" stroke="#D7DEE8" stroke-width="2" stroke-dasharray="7 7"/><text x="320" y="172" font-family="Inter,Arial,sans-serif" font-size="15" font-weight="700" fill="#52606D">CONTROL PLANE</text>
<rect x="300" y="470" width="740" height="300" rx="20" fill="#FBFFFE" stroke="#D7DEE8" stroke-width="2" stroke-dasharray="7 7"/><text x="320" y="502" font-family="Inter,Arial,sans-serif" font-size="15" font-weight="700" fill="#52606D">EVIDENCE PLANE</text>
<rect x="1120" y="140" width="410" height="630" rx="20" fill="#FFFDFC" stroke="#D7DEE8" stroke-width="2" stroke-dasharray="7 7"/><text x="1140" y="172" font-family="Inter,Arial,sans-serif" font-size="15" font-weight="700" fill="#52606D">ASSURANCE PLANE</text>
<rect x="70" y="220" width="190" height="100" rx="16" fill="#EAF1FF" stroke="#2F6BFF" stroke-width="2.5" filter="url(#shadow)"/>
<text x="165.0" y="277.0" text-anchor="middle" font-family="Inter,Arial,sans-serif" font-size="18" font-weight="700" fill="#16324F">Authenticated request</text>
<rect x="340" y="210" width="210" height="110" rx="16" fill="#FFF1DF" stroke="#F59E42" stroke-width="2.5" filter="url(#shadow)"/>
<text x="445.0" y="260.0" text-anchor="middle" font-family="Inter,Arial,sans-serif" font-size="18" font-weight="700" fill="#16324F">Identity +</text>
<text x="445.0" y="284.0" text-anchor="middle" font-family="Inter,Arial,sans-serif" font-size="18" font-weight="700" fill="#16324F">authorization</text>
<rect x="620" y="210" width="210" height="110" rx="16" fill="#F0EEFF" stroke="#7667E8" stroke-width="2.5" filter="url(#shadow)"/>
<text x="725.0" y="260.0" text-anchor="middle" font-family="Inter,Arial,sans-serif" font-size="18" font-weight="700" fill="#16324F">Requirement analysis +</text>
<text x="725.0" y="284.0" text-anchor="middle" font-family="Inter,Arial,sans-serif" font-size="18" font-weight="700" fill="#16324F">route</text>
<rect x="340" y="535" width="260" height="120" rx="16" fill="#E5F7F6" stroke="#16A3A5" stroke-width="2.5" filter="url(#shadow)"/>
<text x="470.0" y="590.0" text-anchor="middle" font-family="Inter,Arial,sans-serif" font-size="18" font-weight="700" fill="#16324F">Text · SQL · Graph ·</text>
<text x="470.0" y="614.0" text-anchor="middle" font-family="Inter,Arial,sans-serif" font-size="18" font-weight="700" fill="#16324F">OCR · External</text>
<rect x="700" y="535" width="260" height="120" rx="16" fill="#F0EEFF" stroke="#7667E8" stroke-width="2.5" filter="url(#shadow)"/>
<text x="830.0" y="590.0" text-anchor="middle" font-family="Inter,Arial,sans-serif" font-size="18" font-weight="700" fill="#16324F">Evidence quality +</text>
<text x="830.0" y="614.0" text-anchor="middle" font-family="Inter,Arial,sans-serif" font-size="18" font-weight="700" fill="#16324F">correction</text>
<rect x="700" y="690" width="260" height="70" rx="16" fill="#F0EEFF" stroke="#7667E8" stroke-width="2.5" filter="url(#shadow)"/>
<text x="830.0" y="732.0" text-anchor="middle" font-family="Inter,Arial,sans-serif" font-size="18" font-weight="700" fill="#16324F">Bounded investigation</text>
<rect x="1125" y="240" width="180" height="90" rx="16" fill="#E5F7F6" stroke="#16A3A5" stroke-width="2.5" filter="url(#shadow)"/>
<text x="1215.0" y="292.0" text-anchor="middle" font-family="Inter,Arial,sans-serif" font-size="18" font-weight="700" fill="#16324F">Evidence ledger</text>
<rect x="1320" y="390" width="180" height="105" rx="16" fill="#EAF1FF" stroke="#2F6BFF" stroke-width="2.5" filter="url(#shadow)"/>
<text x="1410.0" y="437.5" text-anchor="middle" font-family="Inter,Arial,sans-serif" font-size="18" font-weight="700" fill="#16324F">Answer / clarify /</text>
<text x="1410.0" y="461.5" text-anchor="middle" font-family="Inter,Arial,sans-serif" font-size="18" font-weight="700" fill="#16324F">abstain</text>
<rect x="1320" y="570" width="180" height="100" rx="16" fill="#FFF1DF" stroke="#F59E42" stroke-width="2.5" filter="url(#shadow)"/>
<text x="1410.0" y="615.0" text-anchor="middle" font-family="Inter,Arial,sans-serif" font-size="18" font-weight="700" fill="#16324F">Claim + policy</text>
<text x="1410.0" y="639.0" text-anchor="middle" font-family="Inter,Arial,sans-serif" font-size="18" font-weight="700" fill="#16324F">validation</text>
<rect x="1150" y="700" width="320" height="60" rx="16" fill="#FFFFFF" stroke="#8A98A8" stroke-width="2.5" filter="url(#shadow)"/>
<text x="1310.0" y="725.0" text-anchor="middle" font-family="Inter,Arial,sans-serif" font-size="18" font-weight="700" fill="#16324F">Trace · evaluate ·</text>
<text x="1310.0" y="749.0" text-anchor="middle" font-family="Inter,Arial,sans-serif" font-size="18" font-weight="700" fill="#16324F">release</text>
<path d="M 260 270.0 L 340 265.0" fill="none" stroke="#52606D" stroke-width="2.5" stroke-linejoin="round"/>
<polygon points="340,265.0 327.39958619665356,271.79923319091466 326.65104676279134,259.82260224912005" fill="#52606D"/>
<path d="M 550 265.0 L 620 265.0" fill="none" stroke="#52606D" stroke-width="2.5" stroke-linejoin="round"/>
<polygon points="620,265.0 607.0,271.0 607.0,259.0" fill="#52606D"/>
<path d="M 445.0 320 L 414 420 L 431 420 L 431.0 535" fill="none" stroke="#52606D" stroke-width="2.5" stroke-linejoin="round"/>
<polygon points="431.0,535 425.0,522.0 437.0,522.0" fill="#52606D"/>
<rect x="352" y="415" width="140" height="26" rx="8" fill="#F7F9FC"/><text x="422" y="434" text-anchor="middle" font-family="Inter,Arial,sans-serif" font-size="14" fill="#52606D">eligible universe</text>
<path d="M 725.0 320 L 725 430 L 535 430 L 535.0 535" fill="none" stroke="#52606D" stroke-width="2.5" stroke-linejoin="round"/>
<polygon points="535.0,535 529.0,522.0 541.0,522.0" fill="#52606D"/>
<path d="M 600 595.0 L 700 595.0" fill="none" stroke="#52606D" stroke-width="2.5" stroke-linejoin="round"/>
<polygon points="700,595.0 687.0,601.0 687.0,589.0" fill="#52606D"/>
<path d="M 830.0 655 L 830.0 690" fill="none" stroke="#52606D" stroke-width="2.5" stroke-linejoin="round"/>
<polygon points="830.0,690 824.0,677.0 836.0,677.0" fill="#52606D"/>
<rect x="760" y="662" width="140" height="26" rx="8" fill="#F7F9FC"/><text x="830" y="681" text-anchor="middle" font-family="Inter,Arial,sans-serif" font-size="14" fill="#52606D">only if justified</text>
<path d="M 960 595.0 L 1040 595 L 1040 285 L 1125 285.0" fill="none" stroke="#52606D" stroke-width="2.5" stroke-linejoin="round"/>
<polygon points="1125,285.0 1112.0,291.0 1112.0,279.0" fill="#52606D"/>
<path d="M 960 725.0 L 1060 725 L 1060 285 L 1125 285.0" fill="none" stroke="#52606D" stroke-width="2.5" stroke-linejoin="round"/>
<polygon points="1125,285.0 1112.0,291.0 1112.0,279.0" fill="#52606D"/>
<path d="M 1215.0 330 L 1215 360 L 1410 360 L 1410.0 390" fill="none" stroke="#52606D" stroke-width="2.5" stroke-linejoin="round"/>
<polygon points="1410.0,390 1404.0,377.0 1416.0,377.0" fill="#52606D"/>
<path d="M 1410.0 495 L 1410.0 570" fill="none" stroke="#52606D" stroke-width="2.5" stroke-linejoin="round"/>
<polygon points="1410.0,570 1404.0,557.0 1416.0,557.0" fill="#52606D"/>
<path d="M 1410.0 670 L 1310.0 700" fill="none" stroke="#52606D" stroke-width="2.5" stroke-linejoin="round"/>
<polygon points="1310.0,700 1320.727654394477,690.5175197763106 1324.175829021273,702.0114351989644" fill="#52606D"/>
</svg>
