<svg xmlns="http://www.w3.org/2000/svg" width="1200" height="520" viewBox="0 0 1200 520">
<rect width="1200" height="520" fill="#ffffff"/>
<defs><marker id="arrow" markerWidth="7" markerHeight="7" refX="6" refY="3.5" orient="auto"><path d="M0,0 L7,3.5 L0,7 Z" fill="#64748b"/></marker></defs>
<text x="55" y="52" font-family="Arial,sans-serif" font-size="29" font-weight="700" fill="#111827">Candidates are not final context</text>
<text x="55" y="82" font-family="Arial,sans-serif" font-size="16" fill="#475569">Production RAG usually has selection stages between retrieval and generation.</text>
<g font-family="Arial,sans-serif"><rect x="35" y="185" rx="14" width="130" height="72" fill="#f8fafc" stroke="#64748b" stroke-width="2"/><text x="100" y="210.0" text-anchor="middle" font-size="14" font-weight="700" fill="#334155">Retrieve</text><text x="100" y="230.0" text-anchor="middle" font-size="14" font-weight="700" fill="#334155">candidates</text><line x1="165" y1="221" x2="195" y2="221" stroke="#64748b" stroke-width="2" marker-end="url(#arrow)"/><rect x="205" y="185" rx="14" width="130" height="72" fill="#f8fafc" stroke="#64748b" stroke-width="2"/><text x="270" y="220.0" text-anchor="middle" font-size="14" font-weight="700" fill="#334155">Filter</text><line x1="335" y1="221" x2="355" y2="221" stroke="#64748b" stroke-width="2" marker-end="url(#arrow)"/><rect x="365" y="185" rx="14" width="130" height="72" fill="#f8fafc" stroke="#64748b" stroke-width="2"/><text x="430" y="220.0" text-anchor="middle" font-size="14" font-weight="700" fill="#334155">Rerank</text><line x1="495" y1="221" x2="515" y2="221" stroke="#64748b" stroke-width="2" marker-end="url(#arrow)"/><rect x="525" y="185" rx="14" width="130" height="72" fill="#f8fafc" stroke="#64748b" stroke-width="2"/><text x="590" y="220.0" text-anchor="middle" font-size="14" font-weight="700" fill="#334155">Deduplicate</text><line x1="655" y1="221" x2="675" y2="221" stroke="#64748b" stroke-width="2" marker-end="url(#arrow)"/><rect x="685" y="185" rx="14" width="130" height="72" fill="#f8fafc" stroke="#64748b" stroke-width="2"/><text x="750" y="220.0" text-anchor="middle" font-size="14" font-weight="700" fill="#334155">Budget</text><line x1="815" y1="221" x2="845" y2="221" stroke="#64748b" stroke-width="2" marker-end="url(#arrow)"/><rect x="855" y="185" rx="14" width="130" height="72" fill="#f8fafc" stroke="#64748b" stroke-width="2"/><text x="920" y="210.0" text-anchor="middle" font-size="14" font-weight="700" fill="#334155">Label</text><text x="920" y="230.0" text-anchor="middle" font-size="14" font-weight="700" fill="#334155">provenance</text><line x1="985" y1="221" x2="1015" y2="221" stroke="#64748b" stroke-width="2" marker-end="url(#arrow)"/><rect x="1025" y="185" rx="14" width="130" height="72" fill="#f8fafc" stroke="#64748b" stroke-width="2"/><text x="1090" y="210.0" text-anchor="middle" font-size="14" font-weight="700" fill="#334155">Final</text><text x="1090" y="230.0" text-anchor="middle" font-size="14" font-weight="700" fill="#334155">context</text><rect x="245" y="330" rx="15" width="710" height="95" fill="#eef2ff" stroke="#a5b4fc" stroke-width="2"/><text x="600" y="360" text-anchor="middle" font-size="16" font-weight="700" fill="#312e81">Course 02 intentionally compresses these stages</text><text x="600" y="387" text-anchor="middle" font-size="14" fill="#4f46e5">Later lessons add chunking, metadata filters, hybrid retrieval, reranking, context policy and evaluation.</text></g></svg>