<svg xmlns="http://www.w3.org/2000/svg" width="1200" height="450" viewBox="0 0 1200 450">
<rect width="1200" height="450" fill="#ffffff"/>
<defs><marker id="arrow" markerWidth="7" markerHeight="7" refX="6" refY="3.5" orient="auto"><path d="M0,0 L7,3.5 L0,7 Z" fill="#64748b"/></marker></defs>
<text x="55" y="52" font-family="Arial,sans-serif" font-size="29" font-weight="700" fill="#111827">Inspect the evidence boundary</text>
<text x="55" y="82" font-family="Arial,sans-serif" font-size="16" fill="#475569">Do not hide retrieval inside the generation chain while debugging.</text>
<g font-family="Arial,sans-serif"><rect x="20" y="160" rx="15" width="170" height="70" fill="#eef2ff" stroke="#6366f1" stroke-width="2"/><text x="105" y="202" text-anchor="middle" font-size="15" font-weight="700" fill="#1f2937">Question</text><line x1="190" y1="195" x2="235" y2="195" stroke="#64748b" stroke-width="2" marker-end="url(#arrow)"/><rect x="245" y="160" rx="15" width="170" height="70" fill="#ecfeff" stroke="#0891b2" stroke-width="2"/><text x="330" y="202" text-anchor="middle" font-size="15" font-weight="700" fill="#1f2937">Similarity search</text><line x1="415" y1="195" x2="475" y2="195" stroke="#64748b" stroke-width="2" marker-end="url(#arrow)"/><rect x="485" y="160" rx="15" width="170" height="70" fill="#f0fdf4" stroke="#16a34a" stroke-width="2"/><text x="570" y="202" text-anchor="middle" font-size="15" font-weight="700" fill="#1f2937">Ranked candidates</text><line x1="655" y1="195" x2="700" y2="195" stroke="#64748b" stroke-width="2" marker-end="url(#arrow)"/><rect x="710" y="160" rx="15" width="170" height="70" fill="#fff7ed" stroke="#f97316" stroke-width="2"/><text x="795" y="202" text-anchor="middle" font-size="15" font-weight="700" fill="#1f2937">Inspect</text><line x1="880" y1="195" x2="925" y2="195" stroke="#64748b" stroke-width="2" marker-end="url(#arrow)"/><rect x="935" y="160" rx="15" width="170" height="70" fill="#f5f3ff" stroke="#7c3aed" stroke-width="2"/><text x="1020" y="202" text-anchor="middle" font-size="15" font-weight="700" fill="#1f2937">Generate</text><rect x="680" y="290" rx="15" width="230" height="88" fill="#fff7ed" stroke="#f97316" stroke-width="2"/><text x="795" y="319" text-anchor="middle" font-size="15" font-weight="700" fill="#7c2d12">Ask before generation</text><text x="795" y="345" text-anchor="middle" font-size="13" fill="#9a3412">Is the right source here?</text><text x="795" y="365" text-anchor="middle" font-size="13" fill="#9a3412">Is there enough evidence?</text></g></svg>